<svg width="375" height="1595" viewBox="0 0 375 1595" fill="none" xmlns="http://www.w3.org/2000/svg">
<path d="M-805 856.098L248.713 -128" stroke="#D9DBE9" stroke-opacity="0.1" stroke-width="6"/>
<path d="M-460.643 1238.07L593.071 253.969" stroke="#D9DBE9" stroke-opacity="0.1" stroke-width="6"/>
<path d="M-632.821 1047.08L420.892 62.9853" stroke="#D9DBE9" stroke-opacity="0.1" stroke-width="6"/>
<path d="M-288.465 1429.05L765.248 444.956" stroke="#D9DBE9" stroke-opacity="0.1" stroke-width="6"/>
<path d="M-87.5879 1651.87L966.125 667.77" stroke="#D9DBE9" stroke-opacity="0.1" stroke-width="6"/>
<path d="M-718.911 951.59L334.802 -32.5071" stroke="#D9DBE9" stroke-opacity="0.1" stroke-width="6"/>
<path d="M-374.554 1333.56L679.16 349.464" stroke="#D9DBE9" stroke-opacity="0.1" stroke-width="6"/>
<path d="M-546.732 1142.57L506.981 158.477" stroke="#D9DBE9" stroke-opacity="0.1" stroke-width="6"/>
<path d="M-202.374 1524.55L324.483 1032.5L851.339 540.448" stroke="#D9DBE9" stroke-opacity="0.1" stroke-width="6"/>
<path d="M-1.49902 1747.36L1052.21 763.264" stroke="#D9DBE9" stroke-opacity="0.1" stroke-width="6"/>
<path d="M-776.304 887.928L277.41 -96.1695" stroke="#D9DBE9" stroke-opacity="0.1" stroke-width="6"/>
<path d="M-431.947 1269.9L621.767 285.801" stroke="#D9DBE9" stroke-opacity="0.1" stroke-width="6"/>
<path d="M-604.125 1078.91L449.588 94.8171" stroke="#D9DBE9" stroke-opacity="0.1" stroke-width="6"/>
<path d="M-259.767 1460.88L793.947 476.786" stroke="#D9DBE9" stroke-opacity="0.1" stroke-width="6"/>
<path d="M-58.8917 1683.7L994.822 699.602" stroke="#D9DBE9" stroke-opacity="0.1" stroke-width="6"/>
<path d="M-690.214 983.42L363.499 -0.677035" stroke="#D9DBE9" stroke-opacity="0.1" stroke-width="6"/>
<path d="M-345.857 1365.39L707.856 381.294" stroke="#D9DBE9" stroke-opacity="0.1" stroke-width="6"/>
<path d="M-518.036 1174.41L535.677 190.309" stroke="#D9DBE9" stroke-opacity="0.1" stroke-width="6"/>
<path d="M-173.678 1556.38L880.035 572.278" stroke="#D9DBE9" stroke-opacity="0.1" stroke-width="6"/>
<path d="M27.1973 1779.19L1080.91 795.094" stroke="#D9DBE9" stroke-opacity="0.1" stroke-width="6"/>
<path d="M84.5903 1842.85L1138.3 858.757" stroke="#D9DBE9" stroke-opacity="0.1" stroke-width="6"/>
<path d="M-747.608 919.76L306.105 -64.3372" stroke="#D9DBE9" stroke-opacity="0.1" stroke-width="6"/>
<path d="M-403.249 1301.73L650.464 317.632" stroke="#D9DBE9" stroke-opacity="0.1" stroke-width="6"/>
<path d="M-575.429 1110.74L478.285 126.647" stroke="#D9DBE9" stroke-opacity="0.1" stroke-width="6"/>
<path d="M-231.071 1492.72L822.642 508.618" stroke="#D9DBE9" stroke-opacity="0.1" stroke-width="6"/>
<path d="M-30.1953 1715.53L1023.52 731.433" stroke="#D9DBE9" stroke-opacity="0.1" stroke-width="6"/>
<path d="M-661.52 1015.25L392.194 31.155" stroke="#D9DBE9" stroke-opacity="0.1" stroke-width="6"/>
<path d="M-317.161 1397.22L736.552 413.124" stroke="#D9DBE9" stroke-opacity="0.1" stroke-width="6"/>
<path d="M-116.284 1620.04L937.429 635.94" stroke="#D9DBE9" stroke-opacity="0.1" stroke-width="6"/>
<path d="M-489.34 1206.24L564.373 222.139" stroke="#D9DBE9" stroke-opacity="0.1" stroke-width="6"/>
<path d="M-144.981 1588.21L908.732 604.11" stroke="#D9DBE9" stroke-opacity="0.1" stroke-width="6"/>
<path d="M55.8955 1811.02L1109.61 826.925" stroke="#D9DBE9" stroke-opacity="0.1" stroke-width="6"/>
<path d="M113.287 1874.68L1167 890.587" stroke="#D9DBE9" stroke-opacity="0.1" stroke-width="6"/>
</svg>
